<mxfile host="Electron" agent="Mozilla/5.0 (Windows NT 10.0; Win64; x64) AppleWebKit/537.36 (KHTML, like Gecko) draw.io/24.4.6 Chrome/124.0.6367.207 Electron/30.0.6 Safari/537.36" modified="2024-08-03T09:09:26.650Z" etag="Un_rqZ3s2VJvA90zBPSB" version="24.4.6" type="device" pages="2">
  <diagram name="UserManagement" id="03018318-947c-dd8e-b7a3-06fadd420f32">
    <mxGraphModel dx="1671" dy="976" grid="1" gridSize="10" guides="1" tooltips="1" connect="1" arrows="1" fold="1" page="1" pageScale="1" pageWidth="1100" pageHeight="850" background="none" math="0" shadow="0">
      <root>
        <mxCell id="0" />
        <mxCell id="1" parent="0" />
        <mxCell id="MbzPR43FBCwSQIJfIcqY-42" value="Rolle beantragen" style="text;html=1;align=center;verticalAlign=middle;resizable=0;points=[];autosize=1;strokeColor=none;fillColor=none;" vertex="1" parent="1">
          <mxGeometry x="362" y="3877" width="110" height="30" as="geometry" />
        </mxCell>
        <mxCell id="GfoDm_0svsekAU_-suc4-1" value="" style="whiteSpace=wrap;html=1;rounded=0;shadow=0;labelBackgroundColor=none;strokeColor=#000000;strokeWidth=1;fillColor=none;fontFamily=Verdana;fontSize=12;fontColor=#000000;align=center;comic=1;movable=1;resizable=1;rotatable=1;deletable=1;editable=1;locked=0;connectable=1;" parent="1" vertex="1">
          <mxGeometry x="20" y="2660" width="1060" height="730" as="geometry" />
        </mxCell>
        <mxCell id="GfoDm_0svsekAU_-suc4-58" value="" style="whiteSpace=wrap;html=1;rounded=0;shadow=0;labelBackgroundColor=none;strokeWidth=1;fillColor=none;fontFamily=Verdana;fontSize=12;align=center;comic=1;" parent="1" vertex="1">
          <mxGeometry x="31" y="2820" width="200" height="505" as="geometry" />
        </mxCell>
        <mxCell id="677b7b8949515195-1" value="" style="whiteSpace=wrap;html=1;rounded=0;shadow=0;labelBackgroundColor=none;strokeColor=#000000;strokeWidth=1;fillColor=none;fontFamily=Verdana;fontSize=12;fontColor=#000000;align=center;comic=1;" parent="1" vertex="1">
          <mxGeometry x="20" y="110" width="1060" height="720" as="geometry" />
        </mxCell>
        <mxCell id="677b7b8949515195-2" value="LOGO" style="whiteSpace=wrap;html=1;rounded=0;shadow=0;labelBackgroundColor=none;strokeWidth=1;fontFamily=Verdana;fontSize=28;align=center;comic=1;" parent="1" vertex="1">
          <mxGeometry x="30" y="120" width="190" height="50" as="geometry" />
        </mxCell>
        <mxCell id="677b7b8949515195-4" value="[Bibliothek]" style="text;html=1;points=[];align=left;verticalAlign=top;spacingTop=-4;fontSize=14;fontFamily=Verdana;fontStyle=4" parent="1" vertex="1">
          <mxGeometry x="600" y="130" width="60" height="20" as="geometry" />
        </mxCell>
        <mxCell id="677b7b8949515195-5" value="[Einzelspieler]" style="text;html=1;points=[];align=left;verticalAlign=top;spacingTop=-4;fontSize=14;fontFamily=Verdana" parent="1" vertex="1">
          <mxGeometry x="690" y="130" width="60" height="20" as="geometry" />
        </mxCell>
        <mxCell id="677b7b8949515195-6" value="[Mehrspieler]" style="text;html=1;points=[];align=left;verticalAlign=top;spacingTop=-4;fontSize=14;fontFamily=Verdana" parent="1" vertex="1">
          <mxGeometry x="800" y="130" width="60" height="20" as="geometry" />
        </mxCell>
        <mxCell id="677b7b8949515195-7" value="[Profil]" style="text;html=1;points=[];align=left;verticalAlign=top;spacingTop=-4;fontSize=14;fontFamily=Verdana" parent="1" vertex="1">
          <mxGeometry x="910" y="130" width="60" height="20" as="geometry" />
        </mxCell>
        <mxCell id="677b7b8949515195-9" value="" style="line;strokeWidth=1;html=1;rounded=0;shadow=0;labelBackgroundColor=none;fillColor=none;fontFamily=Verdana;fontSize=14;fontColor=#000000;align=center;comic=1;" parent="1" vertex="1">
          <mxGeometry x="20" y="180" width="1060" height="10" as="geometry" />
        </mxCell>
        <mxCell id="677b7b8949515195-16" value="" style="verticalLabelPosition=bottom;shadow=0;dashed=0;align=center;html=1;verticalAlign=top;strokeWidth=1;shape=mxgraph.mockup.graphics.simpleIcon;strokeColor=#999999;rounded=0;labelBackgroundColor=none;fontFamily=Verdana;fontSize=14;fontColor=#000000;comic=1;" parent="1" vertex="1">
          <mxGeometry x="260" y="240" width="800" height="580" as="geometry" />
        </mxCell>
        <mxCell id="n2YtKvLNBDBYEo97HnMF-3" value="[Logout]" style="text;html=1;points=[];align=left;verticalAlign=top;spacingTop=-4;fontSize=14;fontFamily=Verdana" parent="1" vertex="1">
          <mxGeometry x="970" y="130" width="60" height="20" as="geometry" />
        </mxCell>
        <mxCell id="n2YtKvLNBDBYEo97HnMF-73" value="" style="text;html=1;align=left;verticalAlign=middle;whiteSpace=wrap;rounded=0;spacing=2;strokeColor=default;" parent="1" vertex="1">
          <mxGeometry x="20" y="50" width="180" height="40" as="geometry" />
        </mxCell>
        <mxCell id="n2YtKvLNBDBYEo97HnMF-74" value="Die Landing Page ist die Bibliothek&amp;nbsp;" style="text;html=1;align=center;verticalAlign=middle;whiteSpace=wrap;rounded=0;strokeColor=default;" parent="1" vertex="1">
          <mxGeometry x="210" y="10" width="430" height="80" as="geometry" />
        </mxCell>
        <mxCell id="n2YtKvLNBDBYEo97HnMF-75" value="Navigation" style="text;html=1;align=center;verticalAlign=middle;whiteSpace=wrap;rounded=0;textShadow=0;strokeColor=default;" parent="1" vertex="1">
          <mxGeometry x="660" y="10" width="420" height="80" as="geometry" />
        </mxCell>
        <mxCell id="n2YtKvLNBDBYEo97HnMF-76" value="&lt;pre&gt;&lt;span style=&quot;color: rgb(240, 240, 240); font-family: Helvetica; font-style: normal; font-variant-ligatures: normal; font-variant-caps: normal; letter-spacing: normal; orphans: 2; text-align: left; text-indent: 0px; text-transform: none; widows: 2; word-spacing: 0px; -webkit-text-stroke-width: 0px; white-space: normal; background-color: rgb(27, 29, 30); text-decoration-thickness: initial; text-decoration-style: initial; text-decoration-color: initial; float: none; display: inline !important;&quot;&gt;&lt;font style=&quot;font-size: 15px;&quot;&gt;Basisarchitektur&lt;/font&gt;&lt;/span&gt;&lt;/pre&gt;" style="text;whiteSpace=wrap;html=1;strokeColor=default;labelPosition=center;verticalLabelPosition=middle;align=center;verticalAlign=middle;" parent="1" vertex="1">
          <mxGeometry x="20" y="10" width="180" height="40" as="geometry" />
        </mxCell>
        <mxCell id="n2YtKvLNBDBYEo97HnMF-136" value="" style="whiteSpace=wrap;html=1;rounded=0;shadow=0;labelBackgroundColor=none;strokeColor=#000000;strokeWidth=1;fillColor=none;fontFamily=Verdana;fontSize=12;fontColor=#000000;align=center;comic=1;" parent="1" vertex="1">
          <mxGeometry x="20" y="1821" width="1060" height="720" as="geometry" />
        </mxCell>
        <mxCell id="n2YtKvLNBDBYEo97HnMF-137" value="LOGO" style="whiteSpace=wrap;html=1;rounded=0;shadow=0;labelBackgroundColor=none;strokeWidth=1;fontFamily=Verdana;fontSize=28;align=center;comic=1;" parent="1" vertex="1">
          <mxGeometry x="38" y="1830" width="190" height="50" as="geometry" />
        </mxCell>
        <mxCell id="n2YtKvLNBDBYEo97HnMF-139" value="[Bibliothek]" style="text;html=1;points=[];align=left;verticalAlign=top;spacingTop=-4;fontSize=14;fontFamily=Verdana;fontStyle=0" parent="1" vertex="1">
          <mxGeometry x="880" y="1830" width="60" height="20" as="geometry" />
        </mxCell>
        <mxCell id="n2YtKvLNBDBYEo97HnMF-141" value="" style="line;strokeWidth=1;html=1;rounded=0;shadow=0;labelBackgroundColor=none;fillColor=none;fontFamily=Verdana;fontSize=14;fontColor=#000000;align=center;comic=1;" parent="1" vertex="1">
          <mxGeometry x="20" y="1891" width="1060" height="10" as="geometry" />
        </mxCell>
        <mxCell id="n2YtKvLNBDBYEo97HnMF-142" value="&lt;div&gt;Rolle: loged out&lt;/div&gt;" style="text;html=1;align=left;verticalAlign=middle;whiteSpace=wrap;rounded=0;spacing=2;strokeColor=default;" parent="1" vertex="1">
          <mxGeometry x="20" y="1750" width="180" height="40" as="geometry" />
        </mxCell>
        <mxCell id="n2YtKvLNBDBYEo97HnMF-143" value="[Login]" style="text;html=1;points=[];align=left;verticalAlign=top;spacingTop=-4;fontSize=14;fontFamily=Verdana;fontStyle=4" parent="1" vertex="1">
          <mxGeometry x="970" y="1830" width="60" height="20" as="geometry" />
        </mxCell>
        <mxCell id="n2YtKvLNBDBYEo97HnMF-144" value="Hier kann sich ein neuer Benutzer registrieren.&amp;nbsp;" style="text;html=1;align=center;verticalAlign=middle;whiteSpace=wrap;rounded=0;strokeColor=default;" parent="1" vertex="1">
          <mxGeometry x="210" y="1710" width="430" height="80" as="geometry" />
        </mxCell>
        <mxCell id="n2YtKvLNBDBYEo97HnMF-145" value="Navigation:&lt;div&gt;&lt;ul style=&quot;font-size: 10px;&quot;&gt;&lt;li&gt;UF1 - Login undRegistieren&lt;/li&gt;&lt;/ul&gt;&lt;/div&gt;" style="text;html=1;align=left;verticalAlign=top;whiteSpace=wrap;rounded=0;textShadow=0;strokeColor=default;" parent="1" vertex="1">
          <mxGeometry x="660" y="1710" width="420" height="80" as="geometry" />
        </mxCell>
        <mxCell id="n2YtKvLNBDBYEo97HnMF-146" value="&lt;pre&gt;&lt;span style=&quot;font-family: Helvetica; white-space: normal;&quot;&gt;&lt;font style=&quot;font-size: 15px;&quot;&gt;View: Registieren&lt;/font&gt;&lt;/span&gt;&lt;/pre&gt;" style="text;whiteSpace=wrap;html=1;strokeColor=default;verticalAlign=middle;labelPosition=center;verticalLabelPosition=middle;align=center;" parent="1" vertex="1">
          <mxGeometry x="20" y="1710" width="180" height="40" as="geometry" />
        </mxCell>
        <mxCell id="n2YtKvLNBDBYEo97HnMF-147" value="" style="whiteSpace=wrap;html=1;rounded=0;shadow=0;labelBackgroundColor=none;strokeWidth=1;fillColor=none;fontFamily=Verdana;fontSize=12;align=center;comic=1;movable=1;resizable=1;rotatable=1;deletable=1;editable=1;locked=0;connectable=1;" parent="1" vertex="1">
          <mxGeometry x="350" y="1980" width="400" height="470" as="geometry" />
        </mxCell>
        <mxCell id="n2YtKvLNBDBYEo97HnMF-148" value="Benutzername" style="html=1;shadow=0;dashed=0;shape=mxgraph.bootstrap.rect;strokeColor=none;fillColor=none;fontColor=#999999;align=left;spacingLeft=5;whiteSpace=wrap;rounded=0;movable=1;resizable=1;rotatable=1;deletable=1;editable=1;locked=0;connectable=1;fontFamily=Verdana;" parent="1" vertex="1">
          <mxGeometry x="373" y="2005" width="200" height="20" as="geometry" />
        </mxCell>
        <mxCell id="n2YtKvLNBDBYEo97HnMF-149" value="&amp;lt;Benutzername&amp;gt;" style="html=1;shadow=0;dashed=0;shape=mxgraph.bootstrap.rrect;rSize=5;strokeColor=#dddddd;align=left;spacingLeft=10;fontSize=14;whiteSpace=wrap;rounded=0;movable=1;resizable=1;rotatable=1;deletable=1;editable=1;locked=0;connectable=1;fontFamily=Verdana;" parent="1" vertex="1">
          <mxGeometry x="373" y="2025" width="360" height="35" as="geometry" />
        </mxCell>
        <mxCell id="n2YtKvLNBDBYEo97HnMF-150" value="&amp;lt;Passwort&amp;gt;" style="html=1;shadow=0;dashed=0;shape=mxgraph.bootstrap.rrect;rSize=5;strokeColor=#dddddd;align=left;spacingLeft=10;fontSize=14;whiteSpace=wrap;rounded=0;movable=1;resizable=1;rotatable=1;deletable=1;editable=1;locked=0;connectable=1;fontFamily=Verdana;" parent="1" vertex="1">
          <mxGeometry x="370" y="2270" width="360" height="35" as="geometry" />
        </mxCell>
        <mxCell id="n2YtKvLNBDBYEo97HnMF-151" value="Passwort" style="html=1;shadow=0;dashed=0;shape=mxgraph.bootstrap.rect;strokeColor=none;fillColor=none;fontColor=#999999;align=left;spacingLeft=5;whiteSpace=wrap;rounded=0;movable=1;resizable=1;rotatable=1;deletable=1;editable=1;locked=0;connectable=1;fontFamily=Verdana;" parent="1" vertex="1">
          <mxGeometry x="370" y="2250" width="200" height="20" as="geometry" />
        </mxCell>
        <mxCell id="n2YtKvLNBDBYEo97HnMF-153" value="Registrieren" style="html=1;shadow=0;dashed=0;shape=mxgraph.bootstrap.rrect;align=center;rSize=5;strokeColor=none;fillColor=#3D8BCD;fontColor=#ffffff;fontSize=14;whiteSpace=wrap;rounded=0;movable=1;resizable=1;rotatable=1;deletable=1;editable=1;locked=0;connectable=1;fontFamily=Verdana;" parent="1" vertex="1">
          <mxGeometry x="472" y="2410" width="150" height="30" as="geometry" />
        </mxCell>
        <mxCell id="n2YtKvLNBDBYEo97HnMF-154" value="" style="whiteSpace=wrap;html=1;rounded=0;shadow=0;labelBackgroundColor=none;strokeColor=#000000;strokeWidth=1;fillColor=none;fontFamily=Verdana;fontSize=12;fontColor=#000000;align=center;comic=1;" parent="1" vertex="1">
          <mxGeometry x="20" y="960" width="1060" height="720" as="geometry" />
        </mxCell>
        <mxCell id="n2YtKvLNBDBYEo97HnMF-155" value="LOGO" style="whiteSpace=wrap;html=1;rounded=0;shadow=0;labelBackgroundColor=none;strokeWidth=1;fontFamily=Verdana;fontSize=28;align=center;comic=1;" parent="1" vertex="1">
          <mxGeometry x="40" y="980" width="190" height="50" as="geometry" />
        </mxCell>
        <mxCell id="n2YtKvLNBDBYEo97HnMF-157" value="[Bibliothek]" style="text;html=1;points=[];align=left;verticalAlign=top;spacingTop=-4;fontSize=14;fontFamily=Verdana;fontStyle=0" parent="1" vertex="1">
          <mxGeometry x="880" y="980" width="60" height="20" as="geometry" />
        </mxCell>
        <mxCell id="n2YtKvLNBDBYEo97HnMF-159" value="" style="line;strokeWidth=1;html=1;rounded=0;shadow=0;labelBackgroundColor=none;fillColor=none;fontFamily=Verdana;fontSize=14;fontColor=#000000;align=center;comic=1;" parent="1" vertex="1">
          <mxGeometry x="20" y="1040" width="1060" height="10" as="geometry" />
        </mxCell>
        <mxCell id="n2YtKvLNBDBYEo97HnMF-160" value="&lt;div&gt;Rolle: loged out&lt;/div&gt;" style="text;html=1;align=left;verticalAlign=middle;whiteSpace=wrap;rounded=0;spacing=2;strokeColor=default;" parent="1" vertex="1">
          <mxGeometry x="20" y="900" width="180" height="40" as="geometry" />
        </mxCell>
        <mxCell id="n2YtKvLNBDBYEo97HnMF-161" value="[Login]" style="text;html=1;points=[];align=left;verticalAlign=top;spacingTop=-4;fontSize=14;fontFamily=Verdana;fontStyle=4" parent="1" vertex="1">
          <mxGeometry x="970" y="980" width="60" height="20" as="geometry" />
        </mxCell>
        <mxCell id="n2YtKvLNBDBYEo97HnMF-162" value="Hier kann sich ein bereits angelegter Benutzer anmelden." style="text;html=1;align=center;verticalAlign=middle;whiteSpace=wrap;rounded=0;strokeColor=default;" parent="1" vertex="1">
          <mxGeometry x="210" y="860" width="430" height="80" as="geometry" />
        </mxCell>
        <mxCell id="n2YtKvLNBDBYEo97HnMF-163" value="Navigation:&lt;div&gt;&lt;ul style=&quot;font-size: 10px;&quot;&gt;&lt;li&gt;UF1 - Login oder Registieren&lt;/li&gt;&lt;/ul&gt;&lt;/div&gt;" style="text;html=1;align=left;verticalAlign=top;whiteSpace=wrap;rounded=0;textShadow=0;strokeColor=default;" parent="1" vertex="1">
          <mxGeometry x="660" y="860" width="420" height="80" as="geometry" />
        </mxCell>
        <mxCell id="n2YtKvLNBDBYEo97HnMF-164" value="&lt;pre&gt;&lt;span style=&quot;font-family: Helvetica; white-space: normal;&quot;&gt;&lt;font style=&quot;font-size: 15px;&quot;&gt;View: Login&lt;/font&gt;&lt;/span&gt;&lt;/pre&gt;" style="text;whiteSpace=wrap;html=1;strokeColor=default;verticalAlign=middle;labelPosition=center;verticalLabelPosition=middle;align=center;" parent="1" vertex="1">
          <mxGeometry x="20" y="860" width="180" height="40" as="geometry" />
        </mxCell>
        <mxCell id="n2YtKvLNBDBYEo97HnMF-165" value="" style="whiteSpace=wrap;html=1;rounded=0;shadow=0;labelBackgroundColor=none;strokeWidth=1;fillColor=none;fontFamily=Verdana;fontSize=12;align=center;comic=1;movable=1;resizable=1;rotatable=1;deletable=1;editable=1;locked=0;connectable=1;" parent="1" vertex="1">
          <mxGeometry x="350" y="1130" width="400" height="380" as="geometry" />
        </mxCell>
        <mxCell id="n2YtKvLNBDBYEo97HnMF-166" value="Benutzername" style="html=1;shadow=0;dashed=0;shape=mxgraph.bootstrap.rect;strokeColor=none;fillColor=none;fontColor=#999999;align=left;spacingLeft=5;whiteSpace=wrap;rounded=0;movable=1;resizable=1;rotatable=1;deletable=1;editable=1;locked=0;connectable=1;fontFamily=Verdana;" parent="1" vertex="1">
          <mxGeometry x="373" y="1155" width="200" height="20" as="geometry" />
        </mxCell>
        <mxCell id="n2YtKvLNBDBYEo97HnMF-167" value="&amp;lt;Benutzername&amp;gt;" style="html=1;shadow=0;dashed=0;shape=mxgraph.bootstrap.rrect;rSize=5;strokeColor=#dddddd;align=left;spacingLeft=10;fontSize=16;whiteSpace=wrap;rounded=0;movable=1;resizable=1;rotatable=1;deletable=1;editable=1;locked=0;connectable=1;fontFamily=Verdana;" parent="1" vertex="1">
          <mxGeometry x="373" y="1175" width="360" height="35" as="geometry" />
        </mxCell>
        <mxCell id="n2YtKvLNBDBYEo97HnMF-168" value="&amp;lt;Passwort&amp;gt;" style="html=1;shadow=0;dashed=0;shape=mxgraph.bootstrap.rrect;rSize=5;strokeColor=#dddddd;align=left;spacingLeft=10;fontSize=16;whiteSpace=wrap;rounded=0;movable=1;resizable=1;rotatable=1;deletable=1;editable=1;locked=0;connectable=1;fontFamily=Verdana;" parent="1" vertex="1">
          <mxGeometry x="373" y="1250" width="360" height="35" as="geometry" />
        </mxCell>
        <mxCell id="n2YtKvLNBDBYEo97HnMF-169" value="Passwort" style="html=1;shadow=0;dashed=0;shape=mxgraph.bootstrap.rect;strokeColor=none;fillColor=none;fontColor=#999999;align=left;spacingLeft=5;whiteSpace=wrap;rounded=0;movable=1;resizable=1;rotatable=1;deletable=1;editable=1;locked=0;connectable=1;fontFamily=Verdana;" parent="1" vertex="1">
          <mxGeometry x="373" y="1230" width="200" height="20" as="geometry" />
        </mxCell>
        <mxCell id="n2YtKvLNBDBYEo97HnMF-170" value="Login" style="html=1;shadow=0;dashed=0;shape=mxgraph.bootstrap.rrect;align=center;rSize=5;strokeColor=none;fillColor=#3D8BCD;fontColor=#ffffff;fontSize=16;whiteSpace=wrap;rounded=0;movable=1;resizable=1;rotatable=1;deletable=1;editable=1;locked=0;connectable=1;fontFamily=Verdana;" parent="1" vertex="1">
          <mxGeometry x="475" y="1370" width="150" height="40" as="geometry" />
        </mxCell>
        <mxCell id="n2YtKvLNBDBYEo97HnMF-171" value="Registrieren" style="html=1;shadow=0;dashed=0;shape=mxgraph.bootstrap.rrect;align=center;rSize=5;strokeColor=none;fillColor=#3D8BCD;fontColor=#ffffff;fontSize=16;whiteSpace=wrap;rounded=0;movable=1;resizable=1;rotatable=1;deletable=1;editable=1;locked=0;connectable=1;fontFamily=Verdana;" parent="1" vertex="1">
          <mxGeometry x="475" y="1440" width="150" height="30" as="geometry" />
        </mxCell>
        <mxCell id="n2YtKvLNBDBYEo97HnMF-180" value="&lt;font style=&quot;font-size: 24px;&quot; face=&quot;Verdana&quot;&gt;Login&lt;/font&gt;" style="text;html=1;align=center;verticalAlign=middle;whiteSpace=wrap;rounded=0;" parent="1" vertex="1">
          <mxGeometry x="23" y="1060" width="180" height="30" as="geometry" />
        </mxCell>
        <mxCell id="n2YtKvLNBDBYEo97HnMF-181" value="&lt;font style=&quot;font-size: 24px;&quot; face=&quot;Verdana&quot;&gt;Registrieren&lt;/font&gt;" style="text;html=1;align=center;verticalAlign=middle;whiteSpace=wrap;rounded=0;" parent="1" vertex="1">
          <mxGeometry x="40" y="1910" width="180" height="30" as="geometry" />
        </mxCell>
        <mxCell id="n2YtKvLNBDBYEo97HnMF-182" value="&amp;lt;Passwort&amp;gt;" style="html=1;shadow=0;dashed=0;shape=mxgraph.bootstrap.rrect;rSize=5;strokeColor=#dddddd;align=left;spacingLeft=10;fontSize=14;whiteSpace=wrap;rounded=0;movable=1;resizable=1;rotatable=1;deletable=1;editable=1;locked=0;connectable=1;fontFamily=Verdana;" parent="1" vertex="1">
          <mxGeometry x="370" y="2325" width="360" height="35" as="geometry" />
        </mxCell>
        <mxCell id="n2YtKvLNBDBYEo97HnMF-183" value="Passwort wiederholen" style="html=1;shadow=0;dashed=0;shape=mxgraph.bootstrap.rect;strokeColor=none;fillColor=none;fontColor=#999999;align=left;spacingLeft=5;whiteSpace=wrap;rounded=0;movable=1;resizable=1;rotatable=1;deletable=1;editable=1;locked=0;connectable=1;fontFamily=Verdana;" parent="1" vertex="1">
          <mxGeometry x="370" y="2305" width="200" height="20" as="geometry" />
        </mxCell>
        <mxCell id="n2YtKvLNBDBYEo97HnMF-184" value="Email" style="html=1;shadow=0;dashed=0;shape=mxgraph.bootstrap.rect;strokeColor=none;fillColor=none;fontColor=#999999;align=left;spacingLeft=5;whiteSpace=wrap;rounded=0;movable=1;resizable=1;rotatable=1;deletable=1;editable=1;locked=0;connectable=1;fontFamily=Verdana;" parent="1" vertex="1">
          <mxGeometry x="373" y="2070" width="200" height="20" as="geometry" />
        </mxCell>
        <mxCell id="n2YtKvLNBDBYEo97HnMF-185" value="&amp;lt;Email&amp;gt;" style="html=1;shadow=0;dashed=0;shape=mxgraph.bootstrap.rrect;rSize=5;strokeColor=#dddddd;align=left;spacingLeft=10;fontSize=14;whiteSpace=wrap;rounded=0;movable=1;resizable=1;rotatable=1;deletable=1;editable=1;locked=0;connectable=1;fontFamily=Verdana;" parent="1" vertex="1">
          <mxGeometry x="373" y="2090" width="360" height="35" as="geometry" />
        </mxCell>
        <mxCell id="n2YtKvLNBDBYEo97HnMF-187" value="Student" style="html=1;shadow=0;dashed=0;shape=mxgraph.bootstrap.rrect;align=center;rSize=3;strokeColor=none;fillColor=#999999;fontColor=#ffffff;fontStyle=1;fontSize=10;whiteSpace=wrap;rounded=0;fontFamily=Verdana;" parent="1" vertex="1">
          <mxGeometry x="412" y="2185.5" width="48" height="14" as="geometry" />
        </mxCell>
        <mxCell id="n2YtKvLNBDBYEo97HnMF-188" value="" style="shape=ellipse;dashed=0;strokeColor=#999999;fillColor=#ffffff;html=1;rounded=0;shadow=1;fontSize=12;fontColor=#000000;align=center;" parent="1" vertex="1">
          <mxGeometry x="390" y="2185.5" width="14" height="14" as="geometry" />
        </mxCell>
        <mxCell id="n2YtKvLNBDBYEo97HnMF-190" value="Dozent" style="html=1;shadow=0;dashed=0;shape=mxgraph.bootstrap.rrect;align=center;rSize=3;strokeColor=none;fillColor=#999999;fontColor=#ffffff;fontStyle=1;fontSize=10;whiteSpace=wrap;rounded=0;fontFamily=Verdana;" parent="1" vertex="1">
          <mxGeometry x="412" y="2211" width="48" height="14" as="geometry" />
        </mxCell>
        <mxCell id="n2YtKvLNBDBYEo97HnMF-191" value="" style="shape=ellipse;dashed=0;strokeColor=#999999;fillColor=#ffffff;html=1;rounded=0;shadow=1;fontSize=12;fontColor=#000000;align=center;" parent="1" vertex="1">
          <mxGeometry x="390" y="2211" width="14" height="14" as="geometry" />
        </mxCell>
        <mxCell id="kVKc4i6fVkFVap-WpN75-8" value="" style="verticalLabelPosition=bottom;shadow=0;dashed=0;align=center;html=1;verticalAlign=top;strokeWidth=1;shape=mxgraph.mockup.graphics.simpleIcon;strokeColor=#999999;rounded=0;labelBackgroundColor=none;fontFamily=Verdana;fontSize=14;fontColor=#000000;comic=1;" parent="1" vertex="1">
          <mxGeometry x="30" y="240" width="200" height="580" as="geometry" />
        </mxCell>
        <mxCell id="GfoDm_0svsekAU_-suc4-2" value="LOGO" style="whiteSpace=wrap;html=1;rounded=0;shadow=0;labelBackgroundColor=none;strokeWidth=1;fontFamily=Verdana;fontSize=28;align=center;comic=1;" parent="1" vertex="1">
          <mxGeometry x="41" y="2675" width="190" height="50" as="geometry" />
        </mxCell>
        <mxCell id="GfoDm_0svsekAU_-suc4-5" value="" style="line;strokeWidth=1;html=1;rounded=0;shadow=0;labelBackgroundColor=none;fillColor=none;fontFamily=Verdana;fontSize=14;fontColor=#000000;align=center;comic=1;" parent="1" vertex="1">
          <mxGeometry x="20" y="2705" width="1060" height="75" as="geometry" />
        </mxCell>
        <mxCell id="GfoDm_0svsekAU_-suc4-11" value="&lt;div&gt;Rolle: Student&lt;/div&gt;" style="text;html=1;align=left;verticalAlign=middle;whiteSpace=wrap;rounded=0;spacing=2;strokeColor=default;" parent="1" vertex="1">
          <mxGeometry x="20" y="2600" width="180" height="40" as="geometry" />
        </mxCell>
        <mxCell id="GfoDm_0svsekAU_-suc4-12" value="In der Bibliothek werden Fragen und Fragenpools angezeigt und können bearbeitet werden. Welcher Benutzer welchen Bereich bearbeiten darf wird durch ein Rollen-Rechte-Konzept definiert. Entsprechend müssen Bearbeitungsfelder dieser View gesperrt werden können.&amp;nbsp;" style="text;html=1;align=center;verticalAlign=middle;whiteSpace=wrap;rounded=0;strokeColor=default;" parent="1" vertex="1">
          <mxGeometry x="210" y="2560" width="430" height="80" as="geometry" />
        </mxCell>
        <mxCell id="GfoDm_0svsekAU_-suc4-13" value="Navigation:&lt;div&gt;&lt;ul style=&quot;font-size: 10px;&quot;&gt;&lt;li&gt;UF7 - Profildaten anzeigen &amp;amp; ändern&amp;nbsp;&lt;/li&gt;&lt;/ul&gt;&lt;/div&gt;" style="text;html=1;align=left;verticalAlign=top;whiteSpace=wrap;rounded=0;textShadow=0;strokeColor=default;" parent="1" vertex="1">
          <mxGeometry x="660" y="2560" width="420" height="80" as="geometry" />
        </mxCell>
        <mxCell id="GfoDm_0svsekAU_-suc4-14" value="&lt;pre&gt;&lt;span style=&quot;color: rgb(240, 240, 240); font-family: Helvetica; font-style: normal; font-variant-ligatures: normal; font-variant-caps: normal; letter-spacing: normal; orphans: 2; text-align: left; text-indent: 0px; text-transform: none; widows: 2; word-spacing: 0px; -webkit-text-stroke-width: 0px; white-space: normal; background-color: rgb(27, 29, 30); text-decoration-thickness: initial; text-decoration-style: initial; text-decoration-color: initial; float: none; display: inline !important;&quot;&gt;&lt;font style=&quot;font-size: 15px;&quot;&gt;View: Profil&lt;/font&gt;&lt;/span&gt;&lt;/pre&gt;" style="text;whiteSpace=wrap;html=1;strokeColor=default;verticalAlign=middle;labelPosition=center;verticalLabelPosition=middle;align=center;" parent="1" vertex="1">
          <mxGeometry x="20" y="2560" width="180" height="40" as="geometry" />
        </mxCell>
        <mxCell id="GfoDm_0svsekAU_-suc4-16" value="[Bibliothek]" style="text;html=1;points=[];align=left;verticalAlign=top;spacingTop=-4;fontSize=14;fontFamily=Verdana;fontStyle=0" parent="1" vertex="1">
          <mxGeometry x="600" y="2675" width="60" height="20" as="geometry" />
        </mxCell>
        <mxCell id="GfoDm_0svsekAU_-suc4-17" value="[Einzelspieler]" style="text;html=1;points=[];align=left;verticalAlign=top;spacingTop=-4;fontSize=14;fontFamily=Verdana" parent="1" vertex="1">
          <mxGeometry x="690" y="2675" width="60" height="20" as="geometry" />
        </mxCell>
        <mxCell id="GfoDm_0svsekAU_-suc4-18" value="[Mehrspieler]" style="text;html=1;points=[];align=left;verticalAlign=top;spacingTop=-4;fontSize=14;fontFamily=Verdana" parent="1" vertex="1">
          <mxGeometry x="800" y="2675" width="60" height="20" as="geometry" />
        </mxCell>
        <mxCell id="GfoDm_0svsekAU_-suc4-19" value="&lt;u&gt;[Profil]&lt;/u&gt;" style="text;html=1;points=[];align=left;verticalAlign=top;spacingTop=-4;fontSize=14;fontFamily=Verdana" parent="1" vertex="1">
          <mxGeometry x="910" y="2675" width="60" height="20" as="geometry" />
        </mxCell>
        <mxCell id="GfoDm_0svsekAU_-suc4-20" value="[Logout]" style="text;html=1;points=[];align=left;verticalAlign=top;spacingTop=-4;fontSize=14;fontFamily=Verdana" parent="1" vertex="1">
          <mxGeometry x="970" y="2675" width="60" height="20" as="geometry" />
        </mxCell>
        <mxCell id="GfoDm_0svsekAU_-suc4-22" value="" style="whiteSpace=wrap;html=1;rounded=0;shadow=0;labelBackgroundColor=none;strokeWidth=1;fillColor=none;fontFamily=Verdana;fontSize=12;align=center;comic=1;" parent="1" vertex="1">
          <mxGeometry x="376" y="2820" width="361" height="350" as="geometry" />
        </mxCell>
        <mxCell id="GfoDm_0svsekAU_-suc4-23" value="Name:&amp;nbsp;" style="text;html=1;points=[];align=left;verticalAlign=top;spacingTop=-4;fontSize=14;fontFamily=Verdana" parent="1" vertex="1">
          <mxGeometry x="393.5" y="2880" width="170" height="20" as="geometry" />
        </mxCell>
        <mxCell id="GfoDm_0svsekAU_-suc4-24" value="Email:" style="text;html=1;points=[];align=left;verticalAlign=top;spacingTop=-4;fontSize=14;fontFamily=Verdana" parent="1" vertex="1">
          <mxGeometry x="393.5" y="2916" width="170" height="20" as="geometry" />
        </mxCell>
        <mxCell id="GfoDm_0svsekAU_-suc4-25" value="Rolle:&amp;nbsp;" style="text;html=1;points=[];align=left;verticalAlign=top;spacingTop=-4;fontSize=14;fontFamily=Verdana" parent="1" vertex="1">
          <mxGeometry x="393.5" y="2951" width="170" height="20" as="geometry" />
        </mxCell>
        <mxCell id="GfoDm_0svsekAU_-suc4-28" value="&lt;font style=&quot;font-size: 20px;&quot; face=&quot;Verdana&quot;&gt;Profildaten&lt;/font&gt;" style="text;html=1;align=center;verticalAlign=middle;whiteSpace=wrap;rounded=0;" parent="1" vertex="1">
          <mxGeometry x="364" y="2835" width="180" height="30" as="geometry" />
        </mxCell>
        <mxCell id="GfoDm_0svsekAU_-suc4-29" value="Profildaten ändern" style="html=1;shadow=0;dashed=0;shape=mxgraph.bootstrap.rrect;align=center;rSize=5;strokeColor=none;fillColor=#3D8BCD;fontColor=#ffffff;fontSize=14;whiteSpace=wrap;rounded=0;movable=1;resizable=1;rotatable=1;deletable=1;editable=1;locked=0;connectable=1;fontFamily=Verdana;" parent="1" vertex="1">
          <mxGeometry x="481.5" y="3070" width="150" height="34" as="geometry" />
        </mxCell>
        <mxCell id="GfoDm_0svsekAU_-suc4-53" value="Profil löschen" style="html=1;shadow=0;dashed=0;shape=mxgraph.bootstrap.rrect;align=center;rSize=5;strokeColor=none;fillColor=#3D8BCD;fontColor=#ffffff;fontSize=14;whiteSpace=wrap;rounded=0;movable=1;resizable=1;rotatable=1;deletable=1;editable=1;locked=0;connectable=1;fontFamily=Verdana;" parent="1" vertex="1">
          <mxGeometry x="481.5" y="3114" width="150" height="34" as="geometry" />
        </mxCell>
        <mxCell id="GfoDm_0svsekAU_-suc4-54" value="[Profildaten]" style="text;html=1;points=[];align=left;verticalAlign=top;spacingTop=-4;fontSize=14;fontFamily=Verdana" parent="1" vertex="1">
          <mxGeometry x="45" y="2835" width="170" height="20" as="geometry" />
        </mxCell>
        <mxCell id="GfoDm_0svsekAU_-suc4-55" value="[Quiz-Statistik]" style="text;html=1;points=[];align=left;verticalAlign=top;spacingTop=-4;fontSize=14;fontFamily=Verdana" parent="1" vertex="1">
          <mxGeometry x="45" y="2871" width="170" height="20" as="geometry" />
        </mxCell>
        <mxCell id="GfoDm_0svsekAU_-suc4-59" value="&lt;font style=&quot;font-size: 24px;&quot; face=&quot;Verdana&quot;&gt;Profil&lt;/font&gt;" style="text;html=1;align=center;verticalAlign=middle;whiteSpace=wrap;rounded=0;" parent="1" vertex="1">
          <mxGeometry x="30" y="2760" width="180" height="30" as="geometry" />
        </mxCell>
        <mxCell id="W82GU2s6WwhUZmdlV-3S-3" value="&lt;font style=&quot;font-size: 24px;&quot; face=&quot;Verdana&quot;&gt;Bibliothek&lt;/font&gt;" style="text;html=1;align=center;verticalAlign=middle;whiteSpace=wrap;rounded=0;" parent="1" vertex="1">
          <mxGeometry x="35" y="200" width="180" height="30" as="geometry" />
        </mxCell>
        <mxCell id="MbzPR43FBCwSQIJfIcqY-1" value="[Eigene Quiz]" style="text;html=1;points=[];align=left;verticalAlign=top;spacingTop=-4;fontSize=14;fontFamily=Verdana" vertex="1" parent="1">
          <mxGeometry x="46" y="2906" width="170" height="20" as="geometry" />
        </mxCell>
        <mxCell id="MbzPR43FBCwSQIJfIcqY-2" value="Rolle beantragen" style="text;html=1;align=center;verticalAlign=middle;resizable=0;points=[];autosize=1;strokeColor=none;fillColor=none;" vertex="1" parent="1">
          <mxGeometry x="362" y="2151" width="110" height="30" as="geometry" />
        </mxCell>
        <mxCell id="MbzPR43FBCwSQIJfIcqY-3" value="" style="whiteSpace=wrap;html=1;rounded=0;shadow=0;labelBackgroundColor=none;strokeColor=#000000;strokeWidth=1;fillColor=none;fontFamily=Verdana;fontSize=12;fontColor=#000000;align=center;comic=1;movable=1;resizable=1;rotatable=1;deletable=1;editable=1;locked=0;connectable=1;" vertex="1" parent="1">
          <mxGeometry x="20" y="3510" width="1060" height="730" as="geometry" />
        </mxCell>
        <mxCell id="MbzPR43FBCwSQIJfIcqY-4" value="" style="whiteSpace=wrap;html=1;rounded=0;shadow=0;labelBackgroundColor=none;strokeWidth=1;fillColor=none;fontFamily=Verdana;fontSize=12;align=center;comic=1;" vertex="1" parent="1">
          <mxGeometry x="31" y="3670" width="200" height="505" as="geometry" />
        </mxCell>
        <mxCell id="MbzPR43FBCwSQIJfIcqY-5" value="LOGO" style="whiteSpace=wrap;html=1;rounded=0;shadow=0;labelBackgroundColor=none;strokeWidth=1;fontFamily=Verdana;fontSize=28;align=center;comic=1;" vertex="1" parent="1">
          <mxGeometry x="41" y="3525" width="190" height="50" as="geometry" />
        </mxCell>
        <mxCell id="MbzPR43FBCwSQIJfIcqY-6" value="" style="line;strokeWidth=1;html=1;rounded=0;shadow=0;labelBackgroundColor=none;fillColor=none;fontFamily=Verdana;fontSize=14;fontColor=#000000;align=center;comic=1;" vertex="1" parent="1">
          <mxGeometry x="20" y="3555" width="1060" height="75" as="geometry" />
        </mxCell>
        <mxCell id="MbzPR43FBCwSQIJfIcqY-7" value="&lt;div&gt;Rolle: Student&lt;/div&gt;" style="text;html=1;align=left;verticalAlign=middle;whiteSpace=wrap;rounded=0;spacing=2;strokeColor=default;" vertex="1" parent="1">
          <mxGeometry x="20" y="3450" width="180" height="40" as="geometry" />
        </mxCell>
        <mxCell id="MbzPR43FBCwSQIJfIcqY-8" value="In der Bibliothek werden Fragen und Fragenpools angezeigt und können bearbeitet werden. Welcher Benutzer welchen Bereich bearbeiten darf wird durch ein Rollen-Rechte-Konzept definiert. Entsprechend müssen Bearbeitungsfelder dieser View gesperrt werden können.&amp;nbsp;" style="text;html=1;align=center;verticalAlign=middle;whiteSpace=wrap;rounded=0;strokeColor=default;" vertex="1" parent="1">
          <mxGeometry x="210" y="3410" width="430" height="80" as="geometry" />
        </mxCell>
        <mxCell id="MbzPR43FBCwSQIJfIcqY-9" value="Navigation:&lt;div&gt;&lt;ul style=&quot;font-size: 10px;&quot;&gt;&lt;li&gt;UF7 - Profildaten anzeigen &amp;amp; ändern&amp;nbsp;&lt;/li&gt;&lt;/ul&gt;&lt;/div&gt;" style="text;html=1;align=left;verticalAlign=top;whiteSpace=wrap;rounded=0;textShadow=0;strokeColor=default;" vertex="1" parent="1">
          <mxGeometry x="660" y="3410" width="420" height="80" as="geometry" />
        </mxCell>
        <mxCell id="MbzPR43FBCwSQIJfIcqY-10" value="&lt;pre&gt;&lt;span style=&quot;color: rgb(240, 240, 240); font-family: Helvetica; font-style: normal; font-variant-ligatures: normal; font-variant-caps: normal; letter-spacing: normal; orphans: 2; text-align: left; text-indent: 0px; text-transform: none; widows: 2; word-spacing: 0px; -webkit-text-stroke-width: 0px; white-space: normal; background-color: rgb(27, 29, 30); text-decoration-thickness: initial; text-decoration-style: initial; text-decoration-color: initial; float: none; display: inline !important;&quot;&gt;&lt;font style=&quot;font-size: 15px;&quot;&gt;View: Profil - Profildaten ändern&lt;/font&gt;&lt;/span&gt;&lt;/pre&gt;" style="text;whiteSpace=wrap;html=1;strokeColor=default;verticalAlign=middle;labelPosition=center;verticalLabelPosition=middle;align=center;" vertex="1" parent="1">
          <mxGeometry x="20" y="3410" width="180" height="40" as="geometry" />
        </mxCell>
        <mxCell id="MbzPR43FBCwSQIJfIcqY-11" value="[Bibliothek]" style="text;html=1;points=[];align=left;verticalAlign=top;spacingTop=-4;fontSize=14;fontFamily=Verdana;fontStyle=0" vertex="1" parent="1">
          <mxGeometry x="600" y="3525" width="60" height="20" as="geometry" />
        </mxCell>
        <mxCell id="MbzPR43FBCwSQIJfIcqY-12" value="[Einzelspieler]" style="text;html=1;points=[];align=left;verticalAlign=top;spacingTop=-4;fontSize=14;fontFamily=Verdana" vertex="1" parent="1">
          <mxGeometry x="690" y="3525" width="60" height="20" as="geometry" />
        </mxCell>
        <mxCell id="MbzPR43FBCwSQIJfIcqY-13" value="[Mehrspieler]" style="text;html=1;points=[];align=left;verticalAlign=top;spacingTop=-4;fontSize=14;fontFamily=Verdana" vertex="1" parent="1">
          <mxGeometry x="800" y="3525" width="60" height="20" as="geometry" />
        </mxCell>
        <mxCell id="MbzPR43FBCwSQIJfIcqY-14" value="&lt;u&gt;[Profil]&lt;/u&gt;" style="text;html=1;points=[];align=left;verticalAlign=top;spacingTop=-4;fontSize=14;fontFamily=Verdana" vertex="1" parent="1">
          <mxGeometry x="910" y="3525" width="60" height="20" as="geometry" />
        </mxCell>
        <mxCell id="MbzPR43FBCwSQIJfIcqY-15" value="[Logout]" style="text;html=1;points=[];align=left;verticalAlign=top;spacingTop=-4;fontSize=14;fontFamily=Verdana" vertex="1" parent="1">
          <mxGeometry x="970" y="3525" width="60" height="20" as="geometry" />
        </mxCell>
        <mxCell id="MbzPR43FBCwSQIJfIcqY-23" value="[Profildaten]" style="text;html=1;points=[];align=left;verticalAlign=top;spacingTop=-4;fontSize=14;fontFamily=Verdana" vertex="1" parent="1">
          <mxGeometry x="45" y="3685" width="170" height="20" as="geometry" />
        </mxCell>
        <mxCell id="MbzPR43FBCwSQIJfIcqY-24" value="[Quiz-Statistik]" style="text;html=1;points=[];align=left;verticalAlign=top;spacingTop=-4;fontSize=14;fontFamily=Verdana" vertex="1" parent="1">
          <mxGeometry x="45" y="3721" width="170" height="20" as="geometry" />
        </mxCell>
        <mxCell id="MbzPR43FBCwSQIJfIcqY-25" value="&lt;font style=&quot;font-size: 24px;&quot; face=&quot;Verdana&quot;&gt;Profil&lt;/font&gt;" style="text;html=1;align=center;verticalAlign=middle;whiteSpace=wrap;rounded=0;" vertex="1" parent="1">
          <mxGeometry x="30" y="3610" width="180" height="30" as="geometry" />
        </mxCell>
        <mxCell id="MbzPR43FBCwSQIJfIcqY-27" value="[Eigene Quiz]" style="text;html=1;points=[];align=left;verticalAlign=top;spacingTop=-4;fontSize=14;fontFamily=Verdana" vertex="1" parent="1">
          <mxGeometry x="46" y="3756" width="170" height="20" as="geometry" />
        </mxCell>
        <mxCell id="MbzPR43FBCwSQIJfIcqY-28" value="" style="whiteSpace=wrap;html=1;rounded=0;shadow=0;labelBackgroundColor=none;strokeWidth=1;fillColor=none;fontFamily=Verdana;fontSize=12;align=center;comic=1;movable=1;resizable=1;rotatable=1;deletable=1;editable=1;locked=0;connectable=1;" vertex="1" parent="1">
          <mxGeometry x="350" y="3670" width="400" height="510" as="geometry" />
        </mxCell>
        <mxCell id="MbzPR43FBCwSQIJfIcqY-29" value="Benutzername" style="html=1;shadow=0;dashed=0;shape=mxgraph.bootstrap.rect;strokeColor=none;fillColor=none;fontColor=#999999;align=left;spacingLeft=5;whiteSpace=wrap;rounded=0;movable=1;resizable=1;rotatable=1;deletable=1;editable=1;locked=0;connectable=1;fontFamily=Verdana;" vertex="1" parent="1">
          <mxGeometry x="373" y="3731" width="200" height="20" as="geometry" />
        </mxCell>
        <mxCell id="MbzPR43FBCwSQIJfIcqY-30" value="&amp;lt;Benutzername&amp;gt;" style="html=1;shadow=0;dashed=0;shape=mxgraph.bootstrap.rrect;rSize=5;strokeColor=#dddddd;align=left;spacingLeft=10;fontSize=14;whiteSpace=wrap;rounded=0;movable=1;resizable=1;rotatable=1;deletable=1;editable=1;locked=0;connectable=1;fontFamily=Verdana;" vertex="1" parent="1">
          <mxGeometry x="373" y="3751" width="360" height="35" as="geometry" />
        </mxCell>
        <mxCell id="MbzPR43FBCwSQIJfIcqY-31" value="&amp;lt;Passwort&amp;gt;" style="html=1;shadow=0;dashed=0;shape=mxgraph.bootstrap.rrect;rSize=5;strokeColor=#dddddd;align=left;spacingLeft=10;fontSize=14;whiteSpace=wrap;rounded=0;movable=1;resizable=1;rotatable=1;deletable=1;editable=1;locked=0;connectable=1;fontFamily=Verdana;" vertex="1" parent="1">
          <mxGeometry x="370" y="3996" width="360" height="35" as="geometry" />
        </mxCell>
        <mxCell id="MbzPR43FBCwSQIJfIcqY-32" value="Passwort" style="html=1;shadow=0;dashed=0;shape=mxgraph.bootstrap.rect;strokeColor=none;fillColor=none;fontColor=#999999;align=left;spacingLeft=5;whiteSpace=wrap;rounded=0;movable=1;resizable=1;rotatable=1;deletable=1;editable=1;locked=0;connectable=1;fontFamily=Verdana;" vertex="1" parent="1">
          <mxGeometry x="370" y="3976" width="200" height="20" as="geometry" />
        </mxCell>
        <mxCell id="MbzPR43FBCwSQIJfIcqY-33" value="Änderung speichern" style="html=1;shadow=0;dashed=0;shape=mxgraph.bootstrap.rrect;align=center;rSize=5;strokeColor=none;fillColor=#3D8BCD;fontColor=#ffffff;fontSize=14;whiteSpace=wrap;rounded=0;movable=1;resizable=1;rotatable=1;deletable=1;editable=1;locked=0;connectable=1;fontFamily=Verdana;" vertex="1" parent="1">
          <mxGeometry x="370" y="4136" width="150" height="30" as="geometry" />
        </mxCell>
        <mxCell id="MbzPR43FBCwSQIJfIcqY-34" value="&amp;lt;Passwort&amp;gt;" style="html=1;shadow=0;dashed=0;shape=mxgraph.bootstrap.rrect;rSize=5;strokeColor=#dddddd;align=left;spacingLeft=10;fontSize=14;whiteSpace=wrap;rounded=0;movable=1;resizable=1;rotatable=1;deletable=1;editable=1;locked=0;connectable=1;fontFamily=Verdana;" vertex="1" parent="1">
          <mxGeometry x="370" y="4051" width="360" height="35" as="geometry" />
        </mxCell>
        <mxCell id="MbzPR43FBCwSQIJfIcqY-35" value="Passwort wiederholen" style="html=1;shadow=0;dashed=0;shape=mxgraph.bootstrap.rect;strokeColor=none;fillColor=none;fontColor=#999999;align=left;spacingLeft=5;whiteSpace=wrap;rounded=0;movable=1;resizable=1;rotatable=1;deletable=1;editable=1;locked=0;connectable=1;fontFamily=Verdana;" vertex="1" parent="1">
          <mxGeometry x="370" y="4031" width="200" height="20" as="geometry" />
        </mxCell>
        <mxCell id="MbzPR43FBCwSQIJfIcqY-36" value="Email" style="html=1;shadow=0;dashed=0;shape=mxgraph.bootstrap.rect;strokeColor=none;fillColor=none;fontColor=#999999;align=left;spacingLeft=5;whiteSpace=wrap;rounded=0;movable=1;resizable=1;rotatable=1;deletable=1;editable=1;locked=0;connectable=1;fontFamily=Verdana;" vertex="1" parent="1">
          <mxGeometry x="373" y="3796" width="200" height="20" as="geometry" />
        </mxCell>
        <mxCell id="MbzPR43FBCwSQIJfIcqY-37" value="&amp;lt;Email&amp;gt;" style="html=1;shadow=0;dashed=0;shape=mxgraph.bootstrap.rrect;rSize=5;strokeColor=#dddddd;align=left;spacingLeft=10;fontSize=14;whiteSpace=wrap;rounded=0;movable=1;resizable=1;rotatable=1;deletable=1;editable=1;locked=0;connectable=1;fontFamily=Verdana;" vertex="1" parent="1">
          <mxGeometry x="373" y="3816" width="360" height="35" as="geometry" />
        </mxCell>
        <mxCell id="MbzPR43FBCwSQIJfIcqY-38" value="Student" style="html=1;shadow=0;dashed=0;shape=mxgraph.bootstrap.rrect;align=center;rSize=3;strokeColor=none;fillColor=#999999;fontColor=#ffffff;fontStyle=1;fontSize=10;whiteSpace=wrap;rounded=0;fontFamily=Verdana;" vertex="1" parent="1">
          <mxGeometry x="412" y="3911.5" width="48" height="14" as="geometry" />
        </mxCell>
        <mxCell id="MbzPR43FBCwSQIJfIcqY-39" value="x" style="shape=ellipse;dashed=0;strokeColor=#999999;fillColor=#ffffff;html=1;rounded=0;shadow=1;fontSize=12;fontColor=#000000;align=center;" vertex="1" parent="1">
          <mxGeometry x="390" y="3909.5" width="14" height="14" as="geometry" />
        </mxCell>
        <mxCell id="MbzPR43FBCwSQIJfIcqY-40" value="Dozent" style="html=1;shadow=0;dashed=0;shape=mxgraph.bootstrap.rrect;align=center;rSize=3;strokeColor=none;fillColor=#999999;fontColor=#ffffff;fontStyle=1;fontSize=10;whiteSpace=wrap;rounded=0;fontFamily=Verdana;" vertex="1" parent="1">
          <mxGeometry x="412" y="3937" width="48" height="14" as="geometry" />
        </mxCell>
        <mxCell id="MbzPR43FBCwSQIJfIcqY-41" value="" style="shape=ellipse;dashed=0;strokeColor=#999999;fillColor=#ffffff;html=1;rounded=0;shadow=1;fontSize=12;fontColor=#000000;align=center;" vertex="1" parent="1">
          <mxGeometry x="390" y="3935" width="14" height="14" as="geometry" />
        </mxCell>
        <mxCell id="MbzPR43FBCwSQIJfIcqY-43" value="&lt;font style=&quot;font-size: 20px;&quot; face=&quot;Verdana&quot;&gt;Profildaten ändern&lt;/font&gt;" style="text;html=1;align=center;verticalAlign=middle;whiteSpace=wrap;rounded=0;" vertex="1" parent="1">
          <mxGeometry x="362" y="3680" width="208" height="30" as="geometry" />
        </mxCell>
        <mxCell id="MbzPR43FBCwSQIJfIcqY-44" value="Abbrechen" style="html=1;shadow=0;dashed=0;shape=mxgraph.bootstrap.rrect;align=center;rSize=5;strokeColor=none;fillColor=#3D8BCD;fontColor=#ffffff;fontSize=14;whiteSpace=wrap;rounded=0;movable=1;resizable=1;rotatable=1;deletable=1;editable=1;locked=0;connectable=1;fontFamily=Verdana;" vertex="1" parent="1">
          <mxGeometry x="578" y="4132" width="150" height="34" as="geometry" />
        </mxCell>
      </root>
    </mxGraphModel>
  </diagram>
  <diagram id="rxBBXxplpIB61frRZVm7" name="Library">
    <mxGraphModel dx="1420" dy="830" grid="1" gridSize="10" guides="1" tooltips="1" connect="1" arrows="1" fold="1" page="1" pageScale="1" pageWidth="1100" pageHeight="850" math="0" shadow="0">
      <root>
        <mxCell id="0" />
        <mxCell id="1" parent="0" />
        <mxCell id="zuLXKoTY26Q8QqLuJM39-1" value="" style="whiteSpace=wrap;html=1;rounded=0;shadow=0;labelBackgroundColor=none;strokeColor=#000000;strokeWidth=1;fillColor=none;fontFamily=Verdana;fontSize=12;fontColor=#000000;align=center;comic=1;" vertex="1" parent="1">
          <mxGeometry x="20" y="110" width="1060" height="720" as="geometry" />
        </mxCell>
        <mxCell id="zuLXKoTY26Q8QqLuJM39-2" value="LOGO" style="whiteSpace=wrap;html=1;rounded=0;shadow=0;labelBackgroundColor=none;strokeWidth=1;fontFamily=Verdana;fontSize=28;align=center;comic=1;" vertex="1" parent="1">
          <mxGeometry x="37" y="125" width="190" height="50" as="geometry" />
        </mxCell>
        <mxCell id="zuLXKoTY26Q8QqLuJM39-3" value="[Bibliothek]" style="text;html=1;points=[];align=left;verticalAlign=top;spacingTop=-4;fontSize=14;fontFamily=Verdana;fontStyle=4" vertex="1" parent="1">
          <mxGeometry x="880" y="130" width="60" height="20" as="geometry" />
        </mxCell>
        <mxCell id="zuLXKoTY26Q8QqLuJM39-4" value="" style="whiteSpace=wrap;html=1;rounded=0;shadow=0;labelBackgroundColor=none;strokeWidth=1;fillColor=none;fontFamily=Verdana;fontSize=12;align=center;comic=1;" vertex="1" parent="1">
          <mxGeometry x="30" y="245" width="200" height="575" as="geometry" />
        </mxCell>
        <mxCell id="zuLXKoTY26Q8QqLuJM39-5" value="" style="line;strokeWidth=1;html=1;rounded=0;shadow=0;labelBackgroundColor=none;fillColor=none;fontFamily=Verdana;fontSize=14;fontColor=#000000;align=center;comic=1;" vertex="1" parent="1">
          <mxGeometry x="20" y="189" width="1060" height="10" as="geometry" />
        </mxCell>
        <mxCell id="zuLXKoTY26Q8QqLuJM39-6" value="" style="verticalLabelPosition=bottom;shadow=0;dashed=0;align=center;html=1;verticalAlign=top;strokeWidth=1;shape=mxgraph.mockup.graphics.simpleIcon;strokeColor=#999999;rounded=0;labelBackgroundColor=none;fontFamily=Verdana;fontSize=14;fontColor=#000000;comic=1;" vertex="1" parent="1">
          <mxGeometry x="627" y="245" width="433" height="575" as="geometry" />
        </mxCell>
        <mxCell id="zuLXKoTY26Q8QqLuJM39-7" value="&lt;u&gt;[Pool 1]&lt;/u&gt;" style="text;html=1;points=[];align=left;verticalAlign=top;spacingTop=-4;fontSize=14;fontFamily=Verdana" vertex="1" parent="1">
          <mxGeometry x="45" y="315" width="170" height="20" as="geometry" />
        </mxCell>
        <mxCell id="zuLXKoTY26Q8QqLuJM39-8" value="[Pool 2]" style="text;html=1;points=[];align=left;verticalAlign=top;spacingTop=-4;fontSize=14;fontFamily=Verdana" vertex="1" parent="1">
          <mxGeometry x="45" y="351" width="170" height="20" as="geometry" />
        </mxCell>
        <mxCell id="zuLXKoTY26Q8QqLuJM39-9" value="[Pool 3]" style="text;html=1;points=[];align=left;verticalAlign=top;spacingTop=-4;fontSize=14;fontFamily=Verdana" vertex="1" parent="1">
          <mxGeometry x="45" y="386" width="170" height="20" as="geometry" />
        </mxCell>
        <mxCell id="zuLXKoTY26Q8QqLuJM39-10" value="[Pool 4]" style="text;html=1;points=[];align=left;verticalAlign=top;spacingTop=-4;fontSize=14;fontFamily=Verdana" vertex="1" parent="1">
          <mxGeometry x="45" y="422" width="170" height="20" as="geometry" />
        </mxCell>
        <mxCell id="zuLXKoTY26Q8QqLuJM39-11" value="[Pool 5]" style="text;html=1;points=[];align=left;verticalAlign=top;spacingTop=-4;fontSize=14;fontFamily=Verdana" vertex="1" parent="1">
          <mxGeometry x="45" y="458" width="170" height="20" as="geometry" />
        </mxCell>
        <mxCell id="zuLXKoTY26Q8QqLuJM39-12" value="&lt;div&gt;Rolle: loged out&lt;/div&gt;" style="text;html=1;align=left;verticalAlign=middle;whiteSpace=wrap;rounded=0;spacing=2;strokeColor=default;" vertex="1" parent="1">
          <mxGeometry x="20" y="50" width="180" height="40" as="geometry" />
        </mxCell>
        <mxCell id="zuLXKoTY26Q8QqLuJM39-13" value="[Login]" style="text;html=1;points=[];align=left;verticalAlign=top;spacingTop=-4;fontSize=14;fontFamily=Verdana" vertex="1" parent="1">
          <mxGeometry x="970" y="130" width="60" height="20" as="geometry" />
        </mxCell>
        <mxCell id="zuLXKoTY26Q8QqLuJM39-14" value="Die Landing Page ist die Bibliothek&amp;nbsp;" style="text;html=1;align=center;verticalAlign=middle;whiteSpace=wrap;rounded=0;strokeColor=default;" vertex="1" parent="1">
          <mxGeometry x="210" y="10" width="430" height="80" as="geometry" />
        </mxCell>
        <mxCell id="zuLXKoTY26Q8QqLuJM39-15" value="Navigation:&lt;div&gt;&lt;ul style=&quot;font-size: 10px;&quot;&gt;&lt;li&gt;UF1 - Login oder Registieren&lt;/li&gt;&lt;li&gt;UF2 - (loged out) Bibliothek ansehen&amp;nbsp;&lt;/li&gt;&lt;/ul&gt;&lt;/div&gt;" style="text;html=1;align=left;verticalAlign=top;whiteSpace=wrap;rounded=0;textShadow=0;strokeColor=default;" vertex="1" parent="1">
          <mxGeometry x="660" y="10" width="420" height="80" as="geometry" />
        </mxCell>
        <mxCell id="zuLXKoTY26Q8QqLuJM39-16" value="&lt;pre&gt;&lt;span style=&quot;color: rgb(240, 240, 240); font-family: Helvetica; font-style: normal; font-variant-ligatures: normal; font-variant-caps: normal; letter-spacing: normal; orphans: 2; text-align: left; text-indent: 0px; text-transform: none; widows: 2; word-spacing: 0px; -webkit-text-stroke-width: 0px; white-space: normal; background-color: rgb(27, 29, 30); text-decoration-thickness: initial; text-decoration-style: initial; text-decoration-color: initial; float: none; display: inline !important;&quot;&gt;&lt;font style=&quot;font-size: 15px;&quot;&gt;View: Bibliothek&lt;/font&gt;&lt;/span&gt;&lt;/pre&gt;" style="text;whiteSpace=wrap;html=1;strokeColor=default;verticalAlign=top;" vertex="1" parent="1">
          <mxGeometry x="20" y="10" width="180" height="40" as="geometry" />
        </mxCell>
        <mxCell id="zuLXKoTY26Q8QqLuJM39-17" value="&lt;font style=&quot;font-size: 24px;&quot; face=&quot;Verdana&quot;&gt;Bibliothek&lt;/font&gt;" style="text;html=1;align=center;verticalAlign=middle;whiteSpace=wrap;rounded=0;" vertex="1" parent="1">
          <mxGeometry x="37" y="205" width="180" height="30" as="geometry" />
        </mxCell>
        <mxCell id="zuLXKoTY26Q8QqLuJM39-18" value="" style="whiteSpace=wrap;html=1;rounded=0;shadow=0;labelBackgroundColor=none;strokeWidth=1;fillColor=none;fontFamily=Verdana;fontSize=12;align=center;comic=1;" vertex="1" parent="1">
          <mxGeometry x="257" y="245" width="340" height="575" as="geometry" />
        </mxCell>
        <mxCell id="zuLXKoTY26Q8QqLuJM39-19" value="Frage 1" style="text;html=1;points=[];align=left;verticalAlign=top;spacingTop=-4;fontSize=14;fontFamily=Verdana" vertex="1" parent="1">
          <mxGeometry x="284" y="343" width="170" height="20" as="geometry" />
        </mxCell>
        <mxCell id="zuLXKoTY26Q8QqLuJM39-20" value="&lt;span&gt;Frage 2&lt;/span&gt;" style="text;html=1;points=[];align=left;verticalAlign=top;spacingTop=-4;fontSize=14;fontFamily=Verdana;fontStyle=0" vertex="1" parent="1">
          <mxGeometry x="284" y="379" width="170" height="20" as="geometry" />
        </mxCell>
        <mxCell id="zuLXKoTY26Q8QqLuJM39-21" value="Frage 3" style="text;html=1;points=[];align=left;verticalAlign=top;spacingTop=-4;fontSize=14;fontFamily=Verdana" vertex="1" parent="1">
          <mxGeometry x="284" y="414" width="170" height="20" as="geometry" />
        </mxCell>
        <mxCell id="zuLXKoTY26Q8QqLuJM39-22" value="Frage 4" style="text;html=1;points=[];align=left;verticalAlign=top;spacingTop=-4;fontSize=14;fontFamily=Verdana" vertex="1" parent="1">
          <mxGeometry x="284" y="450" width="170" height="20" as="geometry" />
        </mxCell>
        <mxCell id="zuLXKoTY26Q8QqLuJM39-23" value="Frage 5" style="text;html=1;points=[];align=left;verticalAlign=top;spacingTop=-4;fontSize=14;fontFamily=Verdana" vertex="1" parent="1">
          <mxGeometry x="284" y="486" width="170" height="20" as="geometry" />
        </mxCell>
        <mxCell id="zuLXKoTY26Q8QqLuJM39-24" value="&lt;font style=&quot;font-size: 24px;&quot; face=&quot;Verdana&quot;&gt;Fragen&lt;/font&gt;" style="text;html=1;align=center;verticalAlign=middle;whiteSpace=wrap;rounded=0;fontFamily=Helvetica;fontSize=12;fontColor=default;" vertex="1" parent="1">
          <mxGeometry x="329" y="255" width="180" height="30" as="geometry" />
        </mxCell>
        <mxCell id="zuLXKoTY26Q8QqLuJM39-25" value="&lt;font style=&quot;font-size: 24px;&quot; face=&quot;Verdana&quot;&gt;Fragenpool&lt;/font&gt;" style="text;html=1;align=center;verticalAlign=middle;whiteSpace=wrap;rounded=0;" vertex="1" parent="1">
          <mxGeometry x="40" y="255" width="180" height="30" as="geometry" />
        </mxCell>
        <mxCell id="zuLXKoTY26Q8QqLuJM39-26" value="&lt;font style=&quot;font-size: 20px;&quot; face=&quot;Verdana&quot;&gt;Pool 1&lt;/font&gt;" style="text;html=1;align=center;verticalAlign=middle;whiteSpace=wrap;rounded=0;fontFamily=Helvetica;fontSize=12;fontColor=default;" vertex="1" parent="1">
          <mxGeometry x="237" y="295" width="180" height="30" as="geometry" />
        </mxCell>
        <mxCell id="f_p-OuV4b7vRWUslF7y5-1" value="" style="whiteSpace=wrap;html=1;rounded=0;shadow=0;labelBackgroundColor=none;strokeColor=#000000;strokeWidth=1;fillColor=none;fontFamily=Verdana;fontSize=12;fontColor=#000000;align=center;comic=1;" vertex="1" parent="1">
          <mxGeometry x="20" y="960" width="1060" height="720" as="geometry" />
        </mxCell>
        <mxCell id="f_p-OuV4b7vRWUslF7y5-2" value="LOGO" style="whiteSpace=wrap;html=1;rounded=0;shadow=0;labelBackgroundColor=none;strokeWidth=1;fontFamily=Verdana;fontSize=28;align=center;comic=1;" vertex="1" parent="1">
          <mxGeometry x="38" y="975" width="190" height="50" as="geometry" />
        </mxCell>
        <mxCell id="f_p-OuV4b7vRWUslF7y5-3" value="" style="whiteSpace=wrap;html=1;rounded=0;shadow=0;labelBackgroundColor=none;strokeWidth=1;fillColor=none;fontFamily=Verdana;fontSize=12;align=center;comic=1;" vertex="1" parent="1">
          <mxGeometry x="30" y="1100" width="200" height="570" as="geometry" />
        </mxCell>
        <mxCell id="f_p-OuV4b7vRWUslF7y5-4" value="" style="line;strokeWidth=1;html=1;rounded=0;shadow=0;labelBackgroundColor=none;fillColor=none;fontFamily=Verdana;fontSize=14;fontColor=#000000;align=center;comic=1;" vertex="1" parent="1">
          <mxGeometry x="20" y="1040" width="1060" height="10" as="geometry" />
        </mxCell>
        <mxCell id="f_p-OuV4b7vRWUslF7y5-5" value="&lt;u&gt;[Pool 1]&lt;/u&gt;" style="text;html=1;points=[];align=left;verticalAlign=top;spacingTop=-4;fontSize=14;fontFamily=Verdana" vertex="1" parent="1">
          <mxGeometry x="45" y="1165" width="170" height="20" as="geometry" />
        </mxCell>
        <mxCell id="f_p-OuV4b7vRWUslF7y5-6" value="[Pool 2]" style="text;html=1;points=[];align=left;verticalAlign=top;spacingTop=-4;fontSize=14;fontFamily=Verdana" vertex="1" parent="1">
          <mxGeometry x="45" y="1201" width="170" height="20" as="geometry" />
        </mxCell>
        <mxCell id="f_p-OuV4b7vRWUslF7y5-7" value="[Pool 3]" style="text;html=1;points=[];align=left;verticalAlign=top;spacingTop=-4;fontSize=14;fontFamily=Verdana" vertex="1" parent="1">
          <mxGeometry x="45" y="1236" width="170" height="20" as="geometry" />
        </mxCell>
        <mxCell id="f_p-OuV4b7vRWUslF7y5-8" value="[Pool 4]" style="text;html=1;points=[];align=left;verticalAlign=top;spacingTop=-4;fontSize=14;fontFamily=Verdana" vertex="1" parent="1">
          <mxGeometry x="45" y="1272" width="170" height="20" as="geometry" />
        </mxCell>
        <mxCell id="f_p-OuV4b7vRWUslF7y5-9" value="[Pool 5]" style="text;html=1;points=[];align=left;verticalAlign=top;spacingTop=-4;fontSize=14;fontFamily=Verdana" vertex="1" parent="1">
          <mxGeometry x="45" y="1308" width="170" height="20" as="geometry" />
        </mxCell>
        <mxCell id="f_p-OuV4b7vRWUslF7y5-10" value="&lt;div&gt;Rolle: default&lt;/div&gt;" style="text;html=1;align=left;verticalAlign=middle;whiteSpace=wrap;rounded=0;spacing=2;strokeColor=default;" vertex="1" parent="1">
          <mxGeometry x="20" y="900" width="180" height="40" as="geometry" />
        </mxCell>
        <mxCell id="f_p-OuV4b7vRWUslF7y5-11" value="In der Bibliothek werden Fragen und Fragenpools angezeigt und können bearbeitet werden. Welcher Benutzer welchen Bereich bearbeiten darf wird durch ein Rollen-Rechte-Konzept definiert. Entsprechend müssen Bearbeitungsfelder dieser View gesperrt werden können.&amp;nbsp;" style="text;html=1;align=center;verticalAlign=middle;whiteSpace=wrap;rounded=0;strokeColor=default;" vertex="1" parent="1">
          <mxGeometry x="210" y="860" width="430" height="80" as="geometry" />
        </mxCell>
        <mxCell id="f_p-OuV4b7vRWUslF7y5-12" value="Navigation:&lt;div&gt;&lt;ul style=&quot;font-size: 10px;&quot;&gt;&lt;li&gt;UF3 - (as default) Bibliothek ansehen&lt;/li&gt;&lt;li&gt;UF4 - (as default) Fragenpool erstellen / Name ändern / löschen&lt;/li&gt;&lt;li&gt;UF5 - (as default) Fragen erstellen / Namen ändern / löschen&lt;/li&gt;&lt;li&gt;UF6 - (as default) Antwortoptionen erstellen / ändern / löschen&amp;nbsp;&lt;span style=&quot;background-color: initial;&quot;&gt;&amp;nbsp;&lt;/span&gt;&lt;/li&gt;&lt;/ul&gt;&lt;/div&gt;" style="text;html=1;align=left;verticalAlign=top;whiteSpace=wrap;rounded=0;textShadow=0;strokeColor=default;" vertex="1" parent="1">
          <mxGeometry x="660" y="860" width="420" height="80" as="geometry" />
        </mxCell>
        <mxCell id="f_p-OuV4b7vRWUslF7y5-13" value="&lt;pre&gt;&lt;span style=&quot;color: rgb(240, 240, 240); font-family: Helvetica; font-style: normal; font-variant-ligatures: normal; font-variant-caps: normal; letter-spacing: normal; orphans: 2; text-align: left; text-indent: 0px; text-transform: none; widows: 2; word-spacing: 0px; -webkit-text-stroke-width: 0px; white-space: normal; background-color: rgb(27, 29, 30); text-decoration-thickness: initial; text-decoration-style: initial; text-decoration-color: initial; float: none; display: inline !important;&quot;&gt;&lt;font style=&quot;font-size: 15px;&quot;&gt;View: Bibliothek&lt;/font&gt;&lt;/span&gt;&lt;/pre&gt;" style="text;whiteSpace=wrap;html=1;strokeColor=default;verticalAlign=top;" vertex="1" parent="1">
          <mxGeometry x="20" y="860" width="180" height="40" as="geometry" />
        </mxCell>
        <mxCell id="f_p-OuV4b7vRWUslF7y5-14" value="&lt;font style=&quot;font-size: 24px;&quot; face=&quot;Verdana&quot;&gt;Fragenpool&lt;/font&gt;" style="text;html=1;align=center;verticalAlign=middle;whiteSpace=wrap;rounded=0;" vertex="1" parent="1">
          <mxGeometry x="37" y="1115" width="180" height="30" as="geometry" />
        </mxCell>
        <mxCell id="f_p-OuV4b7vRWUslF7y5-15" value="[Bibliothek]" style="text;html=1;points=[];align=left;verticalAlign=top;spacingTop=-4;fontSize=14;fontFamily=Verdana;fontStyle=4" vertex="1" parent="1">
          <mxGeometry x="600" y="975" width="60" height="20" as="geometry" />
        </mxCell>
        <mxCell id="f_p-OuV4b7vRWUslF7y5-16" value="[Einzelspieler]" style="text;html=1;points=[];align=left;verticalAlign=top;spacingTop=-4;fontSize=14;fontFamily=Verdana" vertex="1" parent="1">
          <mxGeometry x="690" y="975" width="60" height="20" as="geometry" />
        </mxCell>
        <mxCell id="f_p-OuV4b7vRWUslF7y5-17" value="[Mehrspieler]" style="text;html=1;points=[];align=left;verticalAlign=top;spacingTop=-4;fontSize=14;fontFamily=Verdana" vertex="1" parent="1">
          <mxGeometry x="800" y="975" width="60" height="20" as="geometry" />
        </mxCell>
        <mxCell id="f_p-OuV4b7vRWUslF7y5-18" value="[Profil]" style="text;html=1;points=[];align=left;verticalAlign=top;spacingTop=-4;fontSize=14;fontFamily=Verdana" vertex="1" parent="1">
          <mxGeometry x="910" y="975" width="60" height="20" as="geometry" />
        </mxCell>
        <mxCell id="f_p-OuV4b7vRWUslF7y5-19" value="[Logout]" style="text;html=1;points=[];align=left;verticalAlign=top;spacingTop=-4;fontSize=14;fontFamily=Verdana" vertex="1" parent="1">
          <mxGeometry x="970" y="975" width="60" height="20" as="geometry" />
        </mxCell>
        <mxCell id="f_p-OuV4b7vRWUslF7y5-20" value="Fragenpool hinzufügen" style="html=1;shadow=0;dashed=0;shape=mxgraph.bootstrap.rrect;align=center;rSize=5;strokeColor=none;fillColor=#3D8BCD;fontColor=#ffffff;fontSize=14;whiteSpace=wrap;rounded=0;movable=1;resizable=1;rotatable=1;deletable=1;editable=1;locked=0;connectable=1;fontFamily=Verdana;" vertex="1" parent="1">
          <mxGeometry x="40" y="1345" width="170" height="30" as="geometry" />
        </mxCell>
        <mxCell id="f_p-OuV4b7vRWUslF7y5-21" value="" style="whiteSpace=wrap;html=1;rounded=0;shadow=0;labelBackgroundColor=none;strokeWidth=1;fillColor=none;fontFamily=Verdana;fontSize=12;align=center;comic=1;" vertex="1" parent="1">
          <mxGeometry x="260" y="1100" width="340" height="570" as="geometry" />
        </mxCell>
        <mxCell id="f_p-OuV4b7vRWUslF7y5-22" value="[Frage 1]" style="text;html=1;points=[];align=left;verticalAlign=top;spacingTop=-4;fontSize=14;fontFamily=Verdana" vertex="1" parent="1">
          <mxGeometry x="277.5" y="1194" width="170" height="20" as="geometry" />
        </mxCell>
        <mxCell id="f_p-OuV4b7vRWUslF7y5-23" value="&lt;u&gt;[Frage 2]&lt;/u&gt;" style="text;html=1;points=[];align=left;verticalAlign=top;spacingTop=-4;fontSize=14;fontFamily=Verdana" vertex="1" parent="1">
          <mxGeometry x="277.5" y="1230" width="170" height="20" as="geometry" />
        </mxCell>
        <mxCell id="f_p-OuV4b7vRWUslF7y5-24" value="[Frage 3]" style="text;html=1;points=[];align=left;verticalAlign=top;spacingTop=-4;fontSize=14;fontFamily=Verdana" vertex="1" parent="1">
          <mxGeometry x="277.5" y="1265" width="170" height="20" as="geometry" />
        </mxCell>
        <mxCell id="f_p-OuV4b7vRWUslF7y5-25" value="[Frage 4]" style="text;html=1;points=[];align=left;verticalAlign=top;spacingTop=-4;fontSize=14;fontFamily=Verdana" vertex="1" parent="1">
          <mxGeometry x="277.5" y="1301" width="170" height="20" as="geometry" />
        </mxCell>
        <mxCell id="f_p-OuV4b7vRWUslF7y5-26" value="[Frage 5]" style="text;html=1;points=[];align=left;verticalAlign=top;spacingTop=-4;fontSize=14;fontFamily=Verdana" vertex="1" parent="1">
          <mxGeometry x="277.5" y="1337" width="170" height="20" as="geometry" />
        </mxCell>
        <mxCell id="f_p-OuV4b7vRWUslF7y5-27" value="Frage hinzufügen" style="html=1;shadow=0;dashed=0;shape=mxgraph.bootstrap.rrect;align=center;rSize=5;strokeColor=none;fillColor=#3D8BCD;fontColor=#ffffff;fontSize=14;whiteSpace=wrap;rounded=0;movable=1;resizable=1;rotatable=1;deletable=1;editable=1;locked=0;connectable=1;fontFamily=Verdana;" vertex="1" parent="1">
          <mxGeometry x="272.5" y="1374" width="150" height="30" as="geometry" />
        </mxCell>
        <mxCell id="f_p-OuV4b7vRWUslF7y5-28" value="" style="whiteSpace=wrap;html=1;rounded=0;shadow=0;labelBackgroundColor=none;strokeWidth=1;fillColor=none;fontFamily=Verdana;fontSize=12;align=center;comic=1;" vertex="1" parent="1">
          <mxGeometry x="630" y="1100" width="440" height="570" as="geometry" />
        </mxCell>
        <mxCell id="f_p-OuV4b7vRWUslF7y5-29" value="&amp;lt;Antwortoption 1&amp;gt;" style="html=1;shadow=0;dashed=0;shape=mxgraph.bootstrap.rrect;rSize=5;strokeColor=#dddddd;align=left;spacingLeft=10;fontSize=14;whiteSpace=wrap;rounded=0;movable=1;resizable=1;rotatable=1;deletable=1;editable=1;locked=0;connectable=1;fontFamily=Verdana;" vertex="1" parent="1">
          <mxGeometry x="670" y="1209" width="360" height="67" as="geometry" />
        </mxCell>
        <mxCell id="f_p-OuV4b7vRWUslF7y5-30" value="Fragenpool löschen" style="html=1;shadow=0;dashed=0;shape=mxgraph.bootstrap.rrect;align=center;rSize=5;strokeColor=none;fillColor=#3D8BCD;fontColor=#ffffff;fontSize=14;whiteSpace=wrap;rounded=0;movable=1;resizable=1;rotatable=1;deletable=1;editable=1;locked=0;connectable=1;fontFamily=Verdana;" vertex="1" parent="1">
          <mxGeometry x="355" y="1625" width="150" height="30" as="geometry" />
        </mxCell>
        <mxCell id="f_p-OuV4b7vRWUslF7y5-31" value="Frage löschen" style="html=1;shadow=0;dashed=0;shape=mxgraph.bootstrap.rrect;align=center;rSize=5;strokeColor=none;fillColor=#3D8BCD;fontColor=#ffffff;fontSize=14;whiteSpace=wrap;rounded=0;movable=1;resizable=1;rotatable=1;deletable=1;editable=1;locked=0;connectable=1;fontFamily=Verdana;" vertex="1" parent="1">
          <mxGeometry x="775" y="1625" width="150" height="30" as="geometry" />
        </mxCell>
        <mxCell id="f_p-OuV4b7vRWUslF7y5-32" value="Hinweis bearbeiten" style="html=1;shadow=0;dashed=0;shape=mxgraph.bootstrap.rrect;align=center;rSize=5;strokeColor=none;fillColor=#3D8BCD;fontColor=#ffffff;fontSize=14;whiteSpace=wrap;rounded=0;movable=1;resizable=1;rotatable=1;deletable=1;editable=1;locked=0;connectable=1;fontFamily=Verdana;" vertex="1" parent="1">
          <mxGeometry x="880" y="1280" width="150" height="30" as="geometry" />
        </mxCell>
        <mxCell id="f_p-OuV4b7vRWUslF7y5-33" value="&amp;lt;Antwortoption X&amp;gt;" style="html=1;shadow=0;dashed=0;shape=mxgraph.bootstrap.rrect;rSize=5;strokeColor=#dddddd;align=left;spacingLeft=10;fontSize=14;whiteSpace=wrap;rounded=0;movable=1;resizable=1;rotatable=1;deletable=1;editable=1;locked=0;connectable=1;fontFamily=Verdana;" vertex="1" parent="1">
          <mxGeometry x="670" y="1453" width="360" height="67" as="geometry" />
        </mxCell>
        <mxCell id="f_p-OuV4b7vRWUslF7y5-34" value="Hinweis bearbeiten" style="html=1;shadow=0;dashed=0;shape=mxgraph.bootstrap.rrect;align=center;rSize=5;strokeColor=none;fillColor=#3D8BCD;fontColor=#ffffff;fontSize=14;whiteSpace=wrap;rounded=0;movable=1;resizable=1;rotatable=1;deletable=1;editable=1;locked=0;connectable=1;fontFamily=Verdana;" vertex="1" parent="1">
          <mxGeometry x="880" y="1524" width="150" height="30" as="geometry" />
        </mxCell>
        <mxCell id="f_p-OuV4b7vRWUslF7y5-35" value="&amp;lt;Antwortoption 2&amp;gt;" style="html=1;shadow=0;dashed=0;shape=mxgraph.bootstrap.rrect;rSize=5;strokeColor=#dddddd;align=left;spacingLeft=10;fontSize=14;whiteSpace=wrap;rounded=0;movable=1;resizable=1;rotatable=1;deletable=1;editable=1;locked=0;connectable=1;fontFamily=Verdana;" vertex="1" parent="1">
          <mxGeometry x="670" y="1333" width="360" height="67" as="geometry" />
        </mxCell>
        <mxCell id="f_p-OuV4b7vRWUslF7y5-36" value="Hinweis bearbeiten" style="html=1;shadow=0;dashed=0;shape=mxgraph.bootstrap.rrect;align=center;rSize=5;strokeColor=none;fillColor=#3D8BCD;fontColor=#ffffff;fontSize=14;whiteSpace=wrap;rounded=0;movable=1;resizable=1;rotatable=1;deletable=1;editable=1;locked=0;connectable=1;fontFamily=Verdana;" vertex="1" parent="1">
          <mxGeometry x="880" y="1404" width="150" height="30" as="geometry" />
        </mxCell>
        <mxCell id="f_p-OuV4b7vRWUslF7y5-37" value="Richtig" style="strokeWidth=1;shadow=0;dashed=0;align=center;html=1;shape=mxgraph.mockup.buttons.onOffButton;gradientColor=none;strokeColor=#999999;buttonState=on;fillColor2=#008cff;fontColor=#ffffff;fontSize=9;mainText=;spacingRight=40;fontStyle=1;whiteSpace=wrap;fontFamily=Verdana;spacingLeft=21;" vertex="1" parent="1">
          <mxGeometry x="728" y="1404" width="72" height="20" as="geometry" />
        </mxCell>
        <mxCell id="f_p-OuV4b7vRWUslF7y5-38" value="Richtig" style="strokeWidth=1;shadow=0;dashed=0;align=center;html=1;shape=mxgraph.mockup.buttons.onOffButton;gradientColor=none;strokeColor=#999999;buttonState=on;fillColor2=#008cff;fontColor=#ffffff;fontSize=9;mainText=;spacingRight=40;fontStyle=1;whiteSpace=wrap;fontFamily=Verdana;spacingLeft=21;" vertex="1" parent="1">
          <mxGeometry x="728" y="1280" width="72" height="20" as="geometry" />
        </mxCell>
        <mxCell id="f_p-OuV4b7vRWUslF7y5-39" value="Richtig" style="strokeWidth=1;shadow=0;dashed=0;align=center;html=1;shape=mxgraph.mockup.buttons.onOffButton;gradientColor=none;strokeColor=#999999;buttonState=on;fillColor2=#008cff;fontColor=#ffffff;fontSize=9;mainText=;spacingRight=40;fontStyle=1;whiteSpace=wrap;fontFamily=Verdana;spacingLeft=21;" vertex="1" parent="1">
          <mxGeometry x="728" y="1524" width="72" height="20" as="geometry" />
        </mxCell>
        <mxCell id="f_p-OuV4b7vRWUslF7y5-40" value="" style="verticalLabelPosition=bottom;shadow=0;dashed=0;align=center;html=1;verticalAlign=top;strokeWidth=1;shape=mxgraph.mockup.forms.horSlider;strokeColor=#999999;sliderStyle=basic;sliderPos=51.073;handleStyle=circle;fillColor2=#ddeeff;direction=north;" vertex="1" parent="1">
          <mxGeometry x="570" y="1111" width="30" height="548" as="geometry" />
        </mxCell>
        <mxCell id="f_p-OuV4b7vRWUslF7y5-41" value="" style="verticalLabelPosition=bottom;shadow=0;dashed=0;align=center;html=1;verticalAlign=top;strokeWidth=1;shape=mxgraph.mockup.forms.horSlider;strokeColor=#999999;sliderStyle=basic;sliderPos=20.052;handleStyle=circle;fillColor2=#ddeeff;direction=north;" vertex="1" parent="1">
          <mxGeometry x="1040" y="1115" width="30" height="548" as="geometry" />
        </mxCell>
        <mxCell id="f_p-OuV4b7vRWUslF7y5-42" value="" style="verticalLabelPosition=bottom;shadow=0;dashed=0;align=center;html=1;verticalAlign=top;strokeWidth=1;shape=mxgraph.mockup.forms.horSlider;strokeColor=#999999;sliderStyle=basic;sliderPos=42.1;handleStyle=circle;fillColor2=#ddeeff;direction=north;" vertex="1" parent="1">
          <mxGeometry x="200" y="1107" width="30" height="548" as="geometry" />
        </mxCell>
        <mxCell id="f_p-OuV4b7vRWUslF7y5-43" value="x" style="strokeWidth=1;shadow=0;dashed=0;align=center;html=1;shape=mxgraph.mockup.buttons.button;strokeColor=#666666;fontColor=#ffffff;mainText=;buttonStyle=round;fontSize=17;fontStyle=1;fillColor=#008cff;whiteSpace=wrap;" vertex="1" parent="1">
          <mxGeometry x="1015" y="1443" width="25" height="20" as="geometry" />
        </mxCell>
        <mxCell id="f_p-OuV4b7vRWUslF7y5-44" value="x" style="strokeWidth=1;shadow=0;dashed=0;align=center;html=1;shape=mxgraph.mockup.buttons.button;strokeColor=#666666;fontColor=#ffffff;mainText=;buttonStyle=round;fontSize=17;fontStyle=1;fillColor=#008cff;whiteSpace=wrap;" vertex="1" parent="1">
          <mxGeometry x="1015" y="1323" width="25" height="20" as="geometry" />
        </mxCell>
        <mxCell id="f_p-OuV4b7vRWUslF7y5-45" value="x" style="strokeWidth=1;shadow=0;dashed=0;align=center;html=1;shape=mxgraph.mockup.buttons.button;strokeColor=#666666;fontColor=#ffffff;mainText=;buttonStyle=round;fontSize=17;fontStyle=1;fillColor=#008cff;whiteSpace=wrap;" vertex="1" parent="1">
          <mxGeometry x="1015" y="1203" width="25" height="20" as="geometry" />
        </mxCell>
        <mxCell id="f_p-OuV4b7vRWUslF7y5-46" value="&lt;font style=&quot;font-size: 20px;&quot; face=&quot;Verdana&quot;&gt;Frage bearbeiten&lt;/font&gt;" style="text;html=1;align=center;verticalAlign=middle;whiteSpace=wrap;rounded=0;" vertex="1" parent="1">
          <mxGeometry x="643" y="1115" width="180" height="30" as="geometry" />
        </mxCell>
        <mxCell id="f_p-OuV4b7vRWUslF7y5-47" value="Änderung speichern" style="html=1;shadow=0;dashed=0;shape=mxgraph.bootstrap.rrect;align=center;rSize=5;strokeColor=none;fillColor=#3D8BCD;fontColor=#ffffff;fontSize=14;whiteSpace=wrap;rounded=0;movable=1;resizable=1;rotatable=1;deletable=1;editable=1;locked=0;connectable=1;fontFamily=Verdana;" vertex="1" parent="1">
          <mxGeometry x="775" y="1585" width="150" height="30" as="geometry" />
        </mxCell>
        <mxCell id="f_p-OuV4b7vRWUslF7y5-48" value="&lt;font style=&quot;font-size: 24px;&quot; face=&quot;Verdana&quot;&gt;Bibliothek&lt;/font&gt;" style="text;html=1;align=center;verticalAlign=middle;whiteSpace=wrap;rounded=0;" vertex="1" parent="1">
          <mxGeometry x="30" y="1055" width="180" height="30" as="geometry" />
        </mxCell>
        <mxCell id="f_p-OuV4b7vRWUslF7y5-49" value="&lt;font style=&quot;font-size: 24px;&quot; face=&quot;Verdana&quot;&gt;Fragen&lt;/font&gt;" style="text;html=1;align=center;verticalAlign=middle;whiteSpace=wrap;rounded=0;fontFamily=Helvetica;fontSize=12;fontColor=default;" vertex="1" parent="1">
          <mxGeometry x="340" y="1115" width="180" height="30" as="geometry" />
        </mxCell>
        <mxCell id="f_p-OuV4b7vRWUslF7y5-50" value="&lt;font style=&quot;font-size: 20px;&quot; face=&quot;Verdana&quot;&gt;Pool 1&lt;/font&gt;" style="text;html=1;align=center;verticalAlign=middle;whiteSpace=wrap;rounded=0;fontFamily=Helvetica;fontSize=12;fontColor=default;" vertex="1" parent="1">
          <mxGeometry x="240" y="1153" width="180" height="30" as="geometry" />
        </mxCell>
        <mxCell id="f_p-OuV4b7vRWUslF7y5-51" value="&lt;font style=&quot;font-size: 20px;&quot; face=&quot;Verdana&quot;&gt;Frage 2&lt;/font&gt;" style="text;html=1;align=center;verticalAlign=middle;whiteSpace=wrap;rounded=0;fontFamily=Helvetica;fontSize=12;fontColor=default;" vertex="1" parent="1">
          <mxGeometry x="610" y="1151" width="180" height="30" as="geometry" />
        </mxCell>
        <mxCell id="f_p-OuV4b7vRWUslF7y5-52" value="Frage ändern" style="html=1;shadow=0;dashed=0;shape=mxgraph.bootstrap.rrect;align=center;rSize=5;strokeColor=none;fillColor=#3D8BCD;fontColor=#ffffff;fontSize=14;whiteSpace=wrap;rounded=0;movable=1;resizable=1;rotatable=1;deletable=1;editable=1;locked=0;connectable=1;fontFamily=Verdana;" vertex="1" parent="1">
          <mxGeometry x="880" y="1153" width="150" height="30" as="geometry" />
        </mxCell>
        <mxCell id="f_p-OuV4b7vRWUslF7y5-53" value="Name ändern" style="html=1;shadow=0;dashed=0;shape=mxgraph.bootstrap.rrect;align=center;rSize=5;strokeColor=none;fillColor=#3D8BCD;fontColor=#ffffff;fontSize=14;whiteSpace=wrap;rounded=0;movable=1;resizable=1;rotatable=1;deletable=1;editable=1;locked=0;connectable=1;fontFamily=Verdana;" vertex="1" parent="1">
          <mxGeometry x="355" y="1585" width="150" height="30" as="geometry" />
        </mxCell>
      </root>
    </mxGraphModel>
  </diagram>
</mxfile>
